<svg width="589" height="434" viewBox="0 0 589 434" fill="none" xmlns="http://www.w3.org/2000/svg">
<path d="M235.04 125.28V104.8H282.656C285.216 135.392 267.552 159.84 235.04 159.84C205.088 159.84 183.84 140.512 183.84 111.2C183.84 81.888 206.368 63.84 236.32 63.84C256.672 63.84 269.728 73.952 278.688 86.368L252.448 98.144C249.376 92.512 244.896 87.52 236.32 87.52C223.776 87.52 213.28 95.456 213.28 111.2C213.28 126.944 222.496 136.16 236.32 136.16C246.688 136.16 252.192 131.936 255.264 125.28H235.04ZM291.09 126.56C291.09 107.488 306.194 95.712 326.674 95.712C347.154 95.712 362.258 107.488 362.258 126.56C362.258 145.632 347.154 157.28 326.674 157.28C306.194 157.28 291.09 145.632 291.09 126.56ZM316.818 126.56C316.818 133.728 321.554 137.44 326.674 137.44C331.794 137.44 336.53 133.728 336.53 126.56C336.53 119.392 331.794 115.552 326.674 115.552C321.554 115.552 316.818 119.392 316.818 126.56ZM369.965 126.56C369.965 107.488 385.069 95.712 405.549 95.712C426.029 95.712 441.133 107.488 441.133 126.56C441.133 145.632 426.029 157.28 405.549 157.28C385.069 157.28 369.965 145.632 369.965 126.56ZM395.693 126.56C395.693 133.728 400.429 137.44 405.549 137.44C410.669 137.44 415.405 133.728 415.405 126.56C415.405 119.392 410.669 115.552 405.549 115.552C400.429 115.552 395.693 119.392 395.693 126.56ZM448.84 126.56C448.84 106.208 462.664 95.84 476.104 95.84C484.296 95.84 491.464 99.424 496.2 106.08V56.16H521.16V156H496.2V147.04C491.464 153.696 484.296 157.28 476.104 157.28C462.664 157.28 448.84 146.912 448.84 126.56ZM475.208 126.56C475.208 133.088 479.944 138.08 485.704 138.08C490.824 138.08 496.2 133.728 496.2 126.56C496.2 119.392 490.824 115.04 485.704 115.04C479.944 115.04 475.208 120.032 475.208 126.56Z" fill="white"/>
<path d="M235.04 240.28V219.8H282.656C285.216 250.392 267.552 274.84 235.04 274.84C205.088 274.84 183.84 255.512 183.84 226.2C183.84 196.888 206.368 178.84 236.32 178.84C256.672 178.84 269.728 188.952 278.688 201.368L252.448 213.144C249.376 207.512 244.896 202.52 236.32 202.52C223.776 202.52 213.28 210.456 213.28 226.2C213.28 241.944 222.496 251.16 236.32 251.16C246.688 251.16 252.192 246.936 255.264 240.28H235.04ZM301.97 232.856L294.418 216.728C302.61 213.528 313.234 210.2 324.498 210.2C341.138 210.2 354.322 217.368 354.322 230.04V271H330.642V262.68C327.186 268.952 319.89 272.28 311.186 272.28C299.538 272.28 289.81 266.008 289.81 253.848C289.81 242.584 298.002 235.8 312.978 235.8C319.506 235.8 326.034 236.952 330.642 239.128V236.184C330.642 231.704 328.082 228.376 320.786 228.376C313.618 228.376 304.146 231.576 301.97 232.856ZM314.898 252.44C314.898 255.768 317.714 257.432 320.786 257.432C325.01 257.432 329.234 255.128 330.386 249.624C327.698 248.6 324.626 247.96 321.554 247.96C316.69 247.96 314.898 249.496 314.898 252.44ZM462.51 232.6V271H437.55V235.16C437.55 229.912 436.142 226.712 432.302 226.712C429.102 226.712 426.67 229.272 426.67 235.16V271H401.71V235.16C401.71 229.912 400.302 226.712 396.462 226.712C393.262 226.712 390.83 229.272 390.83 235.16V271H367.15V212.12H390.83V220.952C394.03 214.808 399.79 210.712 408.366 210.712C418.094 210.712 422.958 213.656 425.134 219.672C429.486 214.168 436.142 210.712 444.206 210.712C458.926 210.712 462.51 218.648 462.51 232.6ZM509.579 272.28C486.411 272.28 472.715 260.76 472.715 241.56C472.715 222.104 485.771 210.84 508.299 210.84C530.571 210.84 542.475 221.208 542.475 240.408C542.475 242.712 542.475 244.888 542.219 246.68H498.187C499.339 252.44 502.795 255.64 508.299 255.64C514.443 255.64 518.539 253.72 520.587 249.88L543.371 253.464C536.971 266.136 525.963 272.28 509.579 272.28ZM507.659 226.2C502.411 226.2 499.467 228.76 498.315 234.648H515.979C515.467 229.272 512.395 226.2 507.659 226.2Z" fill="white"/>
<path d="M202.784 351.952C207.904 361.04 215.712 366.288 223.776 366.288C228.256 366.288 231.712 364.624 231.712 360.656C231.712 357.2 229.408 355.792 214.816 350.16C206.112 346.832 190.752 338.896 190.752 320.848C190.752 303.312 206.496 293.84 225.184 293.84C245.408 293.84 256.672 304.72 261.536 313.808L240.672 325.328C236.448 319.056 230.944 316.624 226.08 316.624C222.112 316.624 219.424 317.904 219.424 320.848C219.424 326.224 228.128 328.144 238.624 331.856C252.96 336.848 261.536 345.936 261.536 359.76C261.536 379.728 243.488 389.84 225.056 389.84C205.728 389.84 189.856 379.472 183.84 365.776L202.784 351.952ZM266.64 327.12H277.52V306.64H301.2V327.12H312.08V346.96H301.2V386H277.52V346.96H266.64V327.12ZM345.39 362.96C345.39 368.208 346.414 371.408 351.534 371.408C356.014 371.408 358.83 368.848 358.83 362.96V327.12H383.79V386H358.83V377.424C355.63 383.44 349.87 387.408 340.654 387.408C324.654 387.408 319.15 379.472 319.15 365.52V327.12H345.39V362.96ZM394.09 356.56C394.09 336.208 407.914 325.84 421.354 325.84C429.546 325.84 436.714 329.424 441.45 336.08V286.16H466.41V386H441.45V377.04C436.714 383.696 429.546 387.28 421.354 387.28C407.914 387.28 394.09 376.912 394.09 356.56ZM420.458 356.56C420.458 363.088 425.194 368.08 430.954 368.08C436.074 368.08 441.45 363.728 441.45 356.56C441.45 349.392 436.074 345.04 430.954 345.04C425.194 345.04 420.458 350.032 420.458 356.56ZM477.23 306.384C477.23 298.832 483.374 293.84 491.054 293.84C498.734 293.84 504.878 298.832 504.878 306.384C504.878 313.936 498.734 318.928 491.054 318.928C483.374 318.928 477.23 313.936 477.23 306.384ZM479.022 327.12H502.958V386H479.022V327.12ZM513.215 356.56C513.215 337.488 528.319 325.712 548.799 325.712C569.279 325.712 584.383 337.488 584.383 356.56C584.383 375.632 569.279 387.28 548.799 387.28C528.319 387.28 513.215 375.632 513.215 356.56ZM538.943 356.56C538.943 363.728 543.679 367.44 548.799 367.44C553.919 367.44 558.655 363.728 558.655 356.56C558.655 349.392 553.919 345.552 548.799 345.552C543.679 345.552 538.943 349.392 538.943 356.56Z" fill="white"/>
<path d="M108 214L98 196H59.8L50 214H-7.07805e-08L79 64L158 214H108ZM79 137.6L67 164.4H91L79 137.6Z" fill="white"/>
<rect x="1" y="245" width="157" height="44" fill="#EAFF60"/>
<rect x="1" y="296" width="157" height="43" fill="#00FF22"/>
<rect x="1" y="346" width="157" height="44" fill="#FF4F4F"/>
</svg>
